<svg width="62" height="62" viewBox="0 0 62 62" fill="none" xmlns="http://www.w3.org/2000/svg">
<circle cx="31" cy="31" r="31" fill="#F5F5F5"/>
<path d="M34.9877 34.8755C34.9877 37.28 33.2057 39.2293 31.0075 39.2293C28.8093 39.2293 27.0273 37.28 27.0273 34.8755C27.0273 32.471 28.8093 30.5217 31.0075 30.5217C33.2057 30.5217 34.9877 32.471 34.9877 34.8755Z" fill="#86BE3F"/>
<path d="M31.1536 48.5328C33.3722 48.5328 35.4903 48.2068 37.4361 47.6201V42.5269C37.4361 41.1043 36.2786 39.9481 34.857 39.9481L27.0869 39.9484C25.6646 39.9484 24.5078 41.1047 24.5078 42.5272V47.5112C26.552 48.1687 28.7975 48.5328 31.1537 48.5328L31.1536 48.5328Z" fill="#86BE3F"/>
<path d="M44.4874 26.0989H41.008C42.6157 25.7113 43.9665 24.623 44.7392 23.1538H46.318C46.318 18.0983 43.5357 14 39.7118 14C35.8866 14 33.1042 18.0983 33.1042 23.1538H34.6833C35.4567 24.623 36.8063 25.7113 38.4139 26.0989H34.7763C33.0893 26.0989 31.6607 27.1933 31.154 28.7095C30.647 27.1933 29.2187 26.0989 27.5323 26.0989H24.0529C26.5923 25.4859 28.4873 23.1201 28.4873 20.2882C28.4873 16.9917 25.9212 14.3185 22.7559 14.3185C19.5911 14.3185 17.0249 16.9917 17.0249 20.2882C17.0249 23.1204 18.9202 25.4859 21.4596 26.0989H17.8208C15.7109 26.0989 14 27.8095 14 29.92V35.4129L14.0133 35.406C14.0133 40.562 17.9004 45.0213 23.5523 47.1686L23.5526 42.5268C23.5526 40.5785 25.1384 38.9924 27.087 38.9924H27.9531C26.7318 38.0257 25.9727 36.506 25.9727 34.8215C25.9727 31.9237 28.2439 29.5667 31.0361 29.5667C33.8282 29.5667 36.0988 31.924 36.0988 34.8215C36.0988 36.5063 35.3397 38.0258 34.1181 38.9924H34.8568C36.8055 38.9924 38.3916 40.5786 38.3916 42.5268V47.3121C44.102 45.2793 48.102 40.9144 48.3077 35.8161L48.308 29.9203C48.3083 27.8094 46.5971 26.0988 44.4875 26.0988L44.4874 26.0989Z" fill="#86BE3F"/>
</svg>
